<svg width="40" height="40" viewBox="0 0 40 40" xmlns="http://www.w3.org/2000/svg">
  <!-- Simplified logo for navbar -->
  <!-- Outer ring -->
  <circle cx="20" cy="20" r="16" fill="none" stroke="#27c9b6" stroke-width="2"/>

  <!-- Connection nodes -->
  <circle cx="20" cy="6" r="3" fill="#27c9b6"/>
  <circle cx="30" cy="13" r="3" fill="#20a89a"/>
  <circle cx="30" cy="27" r="3" fill="#1a8778"/>
  <circle cx="20" cy="34" r="3" fill="#27c9b6"/>
  <circle cx="10" cy="27" r="3" fill="#20a89a"/>
  <circle cx="10" cy="13" r="3" fill="#1a8778"/>

  <!-- Center hub -->
  <circle cx="20" cy="20" r="7" fill="#27c9b6"/>

  <!-- Connection lines -->
  <line x1="20" y1="6" x2="20" y2="13" stroke="#27c9b6" stroke-width="1.5" opacity="0.6"/>
  <line x1="30" y1="13" x2="25" y2="16" stroke="#20a89a" stroke-width="1.5" opacity="0.6"/>
  <line x1="30" y1="27" x2="25" y2="24" stroke="#1a8778" stroke-width="1.5" opacity="0.6"/>
  <line x1="20" y1="34" x2="20" y2="27" stroke="#27c9b6" stroke-width="1.5" opacity="0.6"/>
  <line x1="10" y1="27" x2="15" y2="24" stroke="#20a89a" stroke-width="1.5" opacity="0.6"/>
  <line x1="10" y1="13" x2="15" y2="16" stroke="#1a8778" stroke-width="1.5" opacity="0.6"/>

  <!-- N letter using path instead of text -->
  <path d="M 16 17 L 16 23 L 17.5 23 L 17.5 19.5 L 22.5 23 L 24 23 L 24 17 L 22.5 17 L 22.5 20.5 L 17.5 17 Z" fill="white"/>
</svg>
